<svg width="190" height="31" viewBox="0 0 190 31" fill="none" xmlns="http://www.w3.org/2000/svg">
<path d="M22.696 31L14.1896 20.8472H20.9712L28.3408 29.5496V31H22.696ZM0.1952 31V2.8152H22.9312C23.9243 2.8152 24.8389 3.06346 25.6752 3.56C26.5115 4.05653 27.1779 4.72293 27.6744 5.5592C28.1709 6.36933 28.4192 7.27093 28.4192 8.264V15.8688C28.4192 16.8619 28.1709 17.7765 27.6744 18.6128C27.1779 19.4491 26.5115 20.1155 25.6752 20.612C24.8389 21.0824 23.9243 21.3176 22.9312 21.3176L5.3696 21.3568V31H0.1952ZM5.84 16.104H22.696C22.8267 16.104 22.9443 16.0648 23.0488 15.9864C23.1533 15.908 23.2056 15.8035 23.2056 15.6728V8.46C23.2056 8.32933 23.1533 8.2248 23.0488 8.1464C22.9443 8.04187 22.8267 7.9896 22.696 7.9896H5.84C5.70933 7.9896 5.59173 8.04187 5.4872 8.1464C5.4088 8.2248 5.3696 8.32933 5.3696 8.46V15.6728C5.3696 15.8035 5.4088 15.908 5.4872 15.9864C5.59173 16.0648 5.70933 16.104 5.84 16.104ZM37.7565 31C36.7634 31 35.8618 30.7517 35.0517 30.2552C34.2415 29.7587 33.5882 29.1053 33.0917 28.2952C32.5951 27.4851 32.3469 26.5835 32.3469 25.5904V13.6736C32.3469 12.6805 32.5951 11.7789 33.0917 10.9688C33.5882 10.1587 34.2415 9.50533 35.0517 9.0088C35.8618 8.51226 36.7634 8.264 37.7565 8.264H50.0261C51.0191 8.264 51.9207 8.51226 52.7309 9.0088C53.5671 9.50533 54.2205 10.1587 54.6909 10.9688C55.1874 11.7789 55.4357 12.6805 55.4357 13.6736V25.5904C55.4357 26.5835 55.1874 27.4851 54.6909 28.2952C54.2205 29.1053 53.5802 29.7587 52.7701 30.2552C51.9599 30.7517 51.0453 31 50.0261 31H37.7565ZM37.9525 25.8648H49.8301C49.9607 25.8648 50.0653 25.8256 50.1437 25.7472C50.2482 25.6427 50.3005 25.5251 50.3005 25.3944V13.8696C50.3005 13.7389 50.2482 13.6344 50.1437 13.556C50.0653 13.4515 49.9607 13.3992 49.8301 13.3992H37.9525C37.8218 13.3992 37.7042 13.4515 37.5997 13.556C37.5213 13.6344 37.4821 13.7389 37.4821 13.8696V25.3944C37.4821 25.5251 37.5213 25.6427 37.5997 25.7472C37.7042 25.8256 37.8218 25.8648 37.9525 25.8648ZM63.98 31C62.987 31 62.0854 30.7517 61.2752 30.2552C60.4651 29.7587 59.8118 29.1053 59.3152 28.2952C58.8187 27.4851 58.5704 26.5835 58.5704 25.5904V0.776798H63.7448V25.3944C63.7448 25.5251 63.784 25.6427 63.8624 25.7472C63.967 25.8256 64.0846 25.8648 64.2152 25.8648H68.5664V31H63.98ZM77.0339 31C76.0409 31 75.1393 30.7517 74.3291 30.2552C73.519 29.7587 72.8657 29.1053 72.3691 28.2952C71.8726 27.4851 71.6243 26.5835 71.6243 25.5904V0.776798H76.7987V25.3944C76.7987 25.5251 76.8379 25.6427 76.9163 25.7472C77.0209 25.8256 77.1385 25.8648 77.2691 25.8648H81.6203V31H77.0339ZM94.6807 31V7.9896H83.1559V2.776H111.38V7.9896H99.8943V31H94.6807ZM119.525 31C118.532 31 117.631 30.7517 116.82 30.2552C116.01 29.7587 115.357 29.1053 114.86 28.2952C114.364 27.4851 114.116 26.5835 114.116 25.5904V13.6736C114.116 12.6805 114.364 11.7789 114.86 10.9688C115.357 10.1587 116.01 9.50533 116.82 9.0088C117.631 8.51226 118.532 8.264 119.525 8.264H131.795C132.788 8.264 133.689 8.51226 134.5 9.0088C135.336 9.50533 135.989 10.1587 136.46 10.9688C136.956 11.7789 137.204 12.6805 137.204 13.6736V22.2192H119.251V25.3944C119.251 25.5251 119.29 25.6427 119.368 25.7472C119.473 25.8256 119.591 25.8648 119.721 25.8648H137.204V31H119.525ZM119.251 17.5936H132.069V13.8696C132.069 13.7389 132.017 13.6344 131.912 13.556C131.834 13.4515 131.729 13.3992 131.599 13.3992H119.721C119.591 13.3992 119.473 13.4515 119.368 13.556C119.29 13.6344 119.251 13.7389 119.251 13.8696V17.5936ZM145.748 31C144.755 31 143.853 30.7517 143.043 30.2552C142.233 29.7587 141.58 29.1053 141.083 28.2952C140.587 27.4851 140.338 26.5835 140.338 25.5904V13.6736C140.338 12.6805 140.587 11.7789 141.083 10.9688C141.58 10.1587 142.233 9.50533 143.043 9.0088C143.853 8.51226 144.755 8.264 145.748 8.264H163.388V13.3992H145.944C145.813 13.3992 145.696 13.4515 145.591 13.556C145.513 13.6344 145.473 13.7389 145.473 13.8696V25.3944C145.473 25.5251 145.513 25.6427 145.591 25.7472C145.696 25.8256 145.813 25.8648 145.944 25.8648H163.427V31H145.748ZM166.755 31V0.815998H171.89V8.264H184.434C185.427 8.264 186.329 8.51226 187.139 9.0088C187.949 9.50533 188.603 10.1587 189.099 10.9688C189.596 11.7789 189.844 12.6805 189.844 13.6736V31H184.709V13.8696C184.709 13.7389 184.656 13.6344 184.552 13.556C184.473 13.4515 184.369 13.3992 184.238 13.3992H172.361C172.23 13.3992 172.112 13.4515 172.008 13.556C171.929 13.6344 171.89 13.7389 171.89 13.8696V31H166.755Z" fill="#111111"/>
</svg>
