<svg width="64" height="61" viewBox="0 0 64 61" fill="none" xmlns="http://www.w3.org/2000/svg">
<circle cx="38.9145" cy="13.3422" r="13.3422" fill="#111111"/>
<circle cx="9.45072" cy="36.135" r="9.45072" fill="#111111"/>
<circle cx="36.6909" cy="52.257" r="6.67109" fill="#111111"/>
<path fill-rule="evenodd" clip-rule="evenodd" d="M23.9745 3.95815C20.7161 5.03658 17.444 6.74364 14.4148 9.0633C8.78423 13.375 5.1607 18.9087 3.99647 24.1598L11.7575 24.1315C13.5873 20.5353 16.4918 17.0306 20.3279 14.0931C21.5203 13.1799 22.7504 12.3617 24.0025 11.6394L23.9745 3.95815Z" fill="#111111"/>
<path fill-rule="evenodd" clip-rule="evenodd" d="M46.015 49.8466C48.2524 47.2429 50.1773 44.0931 51.5783 40.5434C54.1817 33.9467 54.4353 27.337 52.7269 22.2369L46.0908 26.2604C46.3759 30.2853 45.6929 34.7857 43.9191 39.2801C43.3674 40.6781 42.7344 42.014 42.0331 43.279L46.015 49.8466Z" fill="#111111"/>
<path fill-rule="evenodd" clip-rule="evenodd" d="M10.4514 48.1069C12.0005 49.9103 13.9663 51.5561 16.2722 52.8841C20.5583 55.3526 25.1302 56.2112 28.8823 55.5683L26.8626 50.6008C24.027 50.3792 20.9744 49.4447 18.0545 47.763C17.1467 47.2402 16.2917 46.6682 15.494 46.0567L10.4514 48.1069Z" fill="#111111"/>
</svg>
