<svg width="87" height="83" viewBox="0 0 87 83" fill="none" xmlns="http://www.w3.org/2000/svg">
<circle cx="53.6014" cy="17.3778" r="18.3778" fill="black"/>
<circle cx="13.0176" cy="48.7731" r="13.0176" fill="black"/>
<circle cx="50.5385" cy="70.9797" r="9.18888" fill="black"/>
<path fill-rule="evenodd" clip-rule="evenodd" d="M33.0229 4.45156C28.5343 5.93698 24.027 8.28843 19.8542 11.4838C12.0987 17.4226 7.10761 25.0447 5.5039 32.2776L16.1939 32.2386C18.7144 27.2854 22.715 22.458 27.9987 18.4119C29.6416 17.1539 31.3364 16.0266 33.0614 15.0315L33.0229 4.45156Z" fill="black"/>
<path fill-rule="evenodd" clip-rule="evenodd" d="M63.3816 67.6585C66.463 64.0723 69.1142 59.7342 71.0437 54.8451C74.6295 45.759 74.979 36.6549 72.6261 29.63L63.4851 35.1722C63.8776 40.716 62.9368 46.9147 60.4937 53.105C59.734 55.0301 58.8623 56.8698 57.8966 58.6118L63.3816 67.6585Z" fill="black"/>
<path fill-rule="evenodd" clip-rule="evenodd" d="M14.3956 65.263C16.5293 67.7471 19.2372 70.0142 22.4136 71.8435C28.3171 75.2435 34.6145 76.4263 39.7826 75.5408L37.0008 68.6986C33.095 68.3933 28.8904 67.1061 24.8686 64.7898C23.6181 64.0696 22.4402 63.2815 21.3413 62.4391L14.3956 65.263Z" fill="black"/>
</svg>
