<svg width="100" height="100" viewBox="0 0 100 100" fill="none" xmlns="http://www.w3.org/2000/svg">
<circle cx="50" cy="50" r="47" fill="#111111" stroke="#D9D9D9" stroke-width="6"/>
<path d="M60.5 69L49.65 56.05H58.3L67.7 67.15V69H60.5ZM31.8 69V33.05H60.8C62.0667 33.05 63.2333 33.3667 64.3 34C65.3667 34.6333 66.2167 35.4833 66.85 36.55C67.4833 37.5833 67.8 38.7333 67.8 40V49.7C67.8 50.9667 67.4833 52.1333 66.85 53.2C66.2167 54.2667 65.3667 55.1167 64.3 55.75C63.2333 56.35 62.0667 56.65 60.8 56.65L38.4 56.7V69H31.8ZM39 50H60.5C60.6667 50 60.8167 49.95 60.95 49.85C61.0833 49.75 61.15 49.6167 61.15 49.45V40.25C61.15 40.0833 61.0833 39.95 60.95 39.85C60.8167 39.7167 60.6667 39.65 60.5 39.65H39C38.8333 39.65 38.6833 39.7167 38.55 39.85C38.45 39.95 38.4 40.0833 38.4 40.25V49.45C38.4 49.6167 38.45 49.75 38.55 49.85C38.6833 49.95 38.8333 50 39 50Z" fill="#F5F5F5"/>
</svg>
