<svg width="190" height="31" viewBox="0 0 190 31" fill="none" xmlns="http://www.w3.org/2000/svg">
<path d="M22.6961 31.0001L14.1897 20.8473H20.9713L28.3409 29.5497V31.0001H22.6961ZM0.195312 31.0001V2.81525H22.9313C23.9244 2.81525 24.839 3.06352 25.6753 3.56005C26.5116 4.05659 27.178 4.72299 27.6745 5.55925C28.171 6.36939 28.4193 7.27099 28.4193 8.26406V15.8689C28.4193 16.8619 28.171 17.7766 27.6745 18.6129C27.178 19.4491 26.5116 20.1155 25.6753 20.6121C24.839 21.0825 23.9244 21.3177 22.9313 21.3177L5.36971 21.3569V31.0001H0.195312ZM5.84011 16.1041H22.6961C22.8268 16.1041 22.9444 16.0649 23.0489 15.9865C23.1534 15.9081 23.2057 15.8035 23.2057 15.6729V8.46005C23.2057 8.32939 23.1534 8.22486 23.0489 8.14646C22.9444 8.04192 22.8268 7.98966 22.6961 7.98966H5.84011C5.70945 7.98966 5.59185 8.04192 5.48731 8.14646C5.40891 8.22486 5.36971 8.32939 5.36971 8.46005V15.6729C5.36971 15.8035 5.40891 15.9081 5.48731 15.9865C5.59185 16.0649 5.70945 16.1041 5.84011 16.1041Z" fill="#EFEFEF"/>
<path d="M37.7566 31.0001C36.7635 31.0001 35.8619 30.7518 35.0518 30.2553C34.2416 29.7587 33.5883 29.1054 33.0918 28.2953C32.5952 27.4851 32.347 26.5835 32.347 25.5905V13.6737C32.347 12.6806 32.5952 11.779 33.0918 10.9689C33.5883 10.1587 34.2416 9.50539 35.0518 9.00885C35.8619 8.51232 36.7635 8.26406 37.7566 8.26406H50.0262C51.0192 8.26406 51.9208 8.51232 52.731 9.00885C53.5672 9.50539 54.2206 10.1587 54.691 10.9689C55.1875 11.779 55.4358 12.6806 55.4358 13.6737V25.5905C55.4358 26.5835 55.1875 27.4851 54.691 28.2953C54.2206 29.1054 53.5803 29.7587 52.7702 30.2553C51.96 30.7518 51.0454 31.0001 50.0262 31.0001H37.7566ZM37.9526 25.8649H49.8302C49.9608 25.8649 50.0654 25.8257 50.1438 25.7473C50.2483 25.6427 50.3006 25.5251 50.3006 25.3945V13.8697C50.3006 13.739 50.2483 13.6345 50.1438 13.5561C50.0654 13.4515 49.9608 13.3993 49.8302 13.3993H37.9526C37.8219 13.3993 37.7043 13.4515 37.5998 13.5561C37.5214 13.6345 37.4822 13.739 37.4822 13.8697V25.3945C37.4822 25.5251 37.5214 25.6427 37.5998 25.7473C37.7043 25.8257 37.8219 25.8649 37.9526 25.8649Z" fill="#EFEFEF"/>
<path d="M63.9801 31.0001C62.9871 31.0001 62.0855 30.7518 61.2753 30.2553C60.4652 29.7587 59.8119 29.1054 59.3153 28.2953C58.8188 27.4851 58.5705 26.5835 58.5705 25.5905V0.776855H63.7449V25.3945C63.7449 25.5251 63.7841 25.6427 63.8625 25.7473C63.9671 25.8257 64.0847 25.8649 64.2153 25.8649H68.5665V31.0001H63.9801Z" fill="#EFEFEF"/>
<path d="M77.034 31.0001C76.041 31.0001 75.1394 30.7518 74.3292 30.2553C73.5191 29.7587 72.8658 29.1054 72.3692 28.2953C71.8727 27.4851 71.6245 26.5835 71.6245 25.5905V0.776855H76.7989V25.3945C76.7989 25.5251 76.8381 25.6427 76.9165 25.7473C77.021 25.8257 77.1386 25.8649 77.2692 25.8649H81.6205V31.0001H77.034Z" fill="#EFEFEF"/>
<path d="M94.6808 31.0001V7.98966H83.156V2.77606H111.38V7.98966H99.8944V31.0001H94.6808Z" fill="#EFEFEF"/>
<path d="M119.525 31.0001C118.532 31.0001 117.631 30.7518 116.821 30.2553C116.01 29.7587 115.357 29.1054 114.861 28.2953C114.364 27.4851 114.116 26.5835 114.116 25.5905V13.6737C114.116 12.6806 114.364 11.779 114.861 10.9689C115.357 10.1587 116.01 9.50539 116.821 9.00885C117.631 8.51232 118.532 8.26406 119.525 8.26406H131.795C132.788 8.26406 133.69 8.51232 134.5 9.00885C135.336 9.50539 135.989 10.1587 136.46 10.9689C136.956 11.779 137.205 12.6806 137.205 13.6737V22.2193H119.251V25.3945C119.251 25.5251 119.29 25.6427 119.369 25.7473C119.473 25.8257 119.591 25.8649 119.721 25.8649H137.205V31.0001H119.525ZM119.251 17.5937H132.069V13.8697C132.069 13.739 132.017 13.6345 131.913 13.5561C131.834 13.4515 131.73 13.3993 131.599 13.3993H119.721C119.591 13.3993 119.473 13.4515 119.369 13.5561C119.29 13.6345 119.251 13.739 119.251 13.8697V17.5937Z" fill="#EFEFEF"/>
<path d="M145.748 31.0001C144.755 31.0001 143.853 30.7518 143.043 30.2553C142.233 29.7587 141.58 29.1054 141.083 28.2953C140.587 27.4851 140.338 26.5835 140.338 25.5905V13.6737C140.338 12.6806 140.587 11.779 141.083 10.9689C141.58 10.1587 142.233 9.50539 143.043 9.00885C143.853 8.51232 144.755 8.26406 145.748 8.26406H163.388V13.3993H145.944C145.813 13.3993 145.696 13.4515 145.591 13.5561C145.513 13.6345 145.474 13.739 145.474 13.8697V25.3945C145.474 25.5251 145.513 25.6427 145.591 25.7473C145.696 25.8257 145.813 25.8649 145.944 25.8649H163.427V31.0001H145.748Z" fill="#EFEFEF"/>
<path d="M166.755 31.0001V0.816055H171.89V8.26406H184.434C185.427 8.26406 186.329 8.51232 187.139 9.00885C187.949 9.50539 188.603 10.1587 189.099 10.9689C189.596 11.779 189.844 12.6806 189.844 13.6737V31.0001H184.709V13.8697C184.709 13.739 184.657 13.6345 184.552 13.5561C184.474 13.4515 184.369 13.3993 184.238 13.3993H172.361C172.23 13.3993 172.113 13.4515 172.008 13.5561C171.93 13.6345 171.89 13.739 171.89 13.8697V31.0001H166.755Z" fill="#EFEFEF"/>
</svg>
